<svg width="1291" height="643" viewBox="0 0 1291 643" fill="none" xmlns="http://www.w3.org/2000/svg">
<path d="M1291 397.293V642H769.162C769.162 642 700.359 634.092 708.702 557.466C717.045 480.84 853.8 479.904 870.368 465.387C886.936 450.869 860.245 431.85 947.708 398.869C999.505 379.344 1083.86 367.676 1137.66 371.841C1214.11 377.734 1291 397.293 1291 397.293Z" fill="#E7F7FF"/>
<path d="M365.68 642.404H0V461.854C0 461.854 92 445.624 152 509.194C204.36 564.544 204.09 636.774 365.68 642.404Z" fill="#E7F7FF"/>
<path d="M1291 341V0H877.728C877.728 0 850.825 54.1383 925.372 62.637C999.92 71.1357 1105.28 79.5834 1133.91 146.174C1162.54 212.764 1187.19 330.285 1280.83 337.527L1291 341Z" fill="#E7F7FF"/>
<path d="M822.75 156.35C822.75 203.49 780.6 190.02 706.88 225.88C576.88 289.12 556 229.57 556 182.43C556 135.29 609.48 71 691.75 71C774.02 71 822.75 109.21 822.75 156.35Z" fill="#E7F7FF"/>
</svg>
